<?xml version="1.0" encoding="iso-8859-1"?>
<!-- Generator: Adobe Illustrator 19.0.0, SVG Export Plug-In . SVG Version: 6.00 Build 0)  -->
<svg version="1.1" id="Capa_1" xmlns="http://www.w3.org/2000/svg" xmlns:xlink="http://www.w3.org/1999/xlink" x="0px" y="0px"
	 viewBox="0 0 496 496" style="enable-background:new 0 0 496 496;" xml:space="preserve">
<rect x="152" y="160" style="fill:#FFCB57;" width="192" height="176"/>
<g>
	<rect x="192" y="88" style="fill:#E56565;" width="16" height="48"/>
	<rect x="192" y="56" style="fill:#E56565;" width="16" height="16"/>
	<rect x="224" y="104" style="fill:#E56565;" width="16" height="32"/>
	<rect x="224" y="72" style="fill:#E56565;" width="16" height="16"/>
	<rect x="288" y="88" style="fill:#E56565;" width="16" height="48"/>
	<rect x="288" y="56" style="fill:#E56565;" width="16" height="16"/>
	<rect x="256" y="104" style="fill:#E56565;" width="16" height="32"/>
	<rect x="256" y="72" style="fill:#E56565;" width="16" height="16"/>
	<rect x="80" y="288" style="fill:#E56565;" width="48" height="16"/>
	<rect x="48" y="288" style="fill:#E56565;" width="16" height="16"/>
	<rect x="96" y="256" style="fill:#E56565;" width="32" height="16"/>
	<rect x="64" y="256" style="fill:#E56565;" width="16" height="16"/>
	<rect x="80" y="192" style="fill:#E56565;" width="48" height="16"/>
	<rect x="48" y="192" style="fill:#E56565;" width="16" height="16"/>
	<rect x="96" y="224" style="fill:#E56565;" width="32" height="16"/>
	<rect x="64" y="224" style="fill:#E56565;" width="16" height="16"/>
	<rect x="288" y="360" style="fill:#E56565;" width="16" height="48"/>
	<rect x="288" y="424" style="fill:#E56565;" width="16" height="16"/>
	<rect x="256" y="360" style="fill:#E56565;" width="16" height="32"/>
	<rect x="256" y="408" style="fill:#E56565;" width="16" height="16"/>
	<rect x="192" y="360" style="fill:#E56565;" width="16" height="48"/>
	<rect x="192" y="424" style="fill:#E56565;" width="16" height="16"/>
	<rect x="224" y="360" style="fill:#E56565;" width="16" height="32"/>
	<rect x="224" y="408" style="fill:#E56565;" width="16" height="16"/>
	<rect x="368" y="192" style="fill:#E56565;" width="48" height="16"/>
	<rect x="432" y="192" style="fill:#E56565;" width="16" height="16"/>
	<rect x="368" y="224" style="fill:#E56565;" width="32" height="16"/>
	<rect x="416" y="224" style="fill:#E56565;" width="16" height="16"/>
	<rect x="368" y="288" style="fill:#E56565;" width="48" height="16"/>
	<rect x="432" y="288" style="fill:#E56565;" width="16" height="16"/>
	<rect x="368" y="256" style="fill:#E56565;" width="32" height="16"/>
	<rect x="416" y="256" style="fill:#E56565;" width="16" height="16"/>
</g>
<g>
	<path style="fill:#3F3A34;" d="M144,344h208V152H144V344z M160,168h176v160H160V168z"/>
	<path style="fill:#3F3A34;" d="M176,312h144V184H176V312z M192,200h112v96H192V200z"/>
	<rect x="272" y="216" style="fill:#3F3A34;" width="16" height="64"/>
	<path style="fill:#3F3A34;" d="M208,280h16v-16h16v16h16v-64h-48V280z M240,232v16h-16v-16H240z"/>
	<path style="fill:#3F3A34;" d="M496,248c0-22.552-8.408-43.712-23.784-60.08c5.136-21.864,1.832-44.392-9.448-63.92
		c-11.272-19.528-29.136-33.648-50.632-40.144c-6.496-21.504-20.608-39.36-40.144-50.64c-19.52-11.272-42.032-14.552-63.92-9.448
		C291.712,8.408,270.56,0,248,0s-43.712,8.408-60.08,23.776c-21.864-5.112-44.384-1.832-63.92,9.448
		c-19.528,11.28-33.648,29.136-40.144,50.64c-21.504,6.496-39.36,20.616-50.632,40.144c-11.28,19.528-14.576,42.056-9.448,63.92
		C8.408,204.288,0,225.448,0,248s8.408,43.712,23.784,60.08c-5.136,21.864-1.832,44.384,9.448,63.92
		c11.272,19.528,29.136,33.648,50.632,40.144c6.496,21.504,20.608,39.36,40.144,50.64c19.536,11.28,42.056,14.568,63.92,9.448
		C204.288,487.592,225.44,496,248,496s43.712-8.408,60.08-23.776c21.888,5.12,44.4,1.832,63.92-9.448
		c19.528-11.28,33.648-29.136,40.144-50.64c21.504-6.496,39.36-20.608,50.632-40.144c11.28-19.536,14.576-42.056,9.448-63.92
		C487.592,291.712,496,270.552,496,248z M455.648,307.928c5.528,19.056,3.144,38.976-6.736,56.072
		c-9.864,17.096-25.912,29.12-45.184,33.856l-4.704,1.16l-1.16,4.704C393.12,423,381.088,439.056,364,448.92
		c-17.104,9.864-37.024,12.264-56.072,6.728l-4.656-1.352l-3.352,3.504C286.184,472.112,267.752,480,248,480
		s-38.184-7.888-51.92-22.208l-3.352-3.504l-4.656,1.352c-19.048,5.544-38.96,3.152-56.072-6.728
		c-17.096-9.864-29.128-25.92-33.864-45.2l-1.16-4.704l-4.704-1.16c-19.272-4.736-35.32-16.76-45.184-33.856
		c-9.872-17.104-12.264-37.016-6.736-56.072l1.352-4.656l-3.496-3.344C23.888,286.184,16,267.744,16,248s7.888-38.184,22.208-51.92
		l3.496-3.352l-1.352-4.656c-5.528-19.064-3.144-38.976,6.736-56.072C56.952,114.904,73,102.88,92.28,98.136l4.696-1.16l1.16-4.704
		C102.88,72.992,114.912,56.944,132,47.08c17.096-9.872,37.008-12.272,56.072-6.728l4.656,1.352l3.352-3.504
		C209.816,23.888,228.248,16,248,16s38.184,7.888,51.92,22.208l3.352,3.504l4.656-1.352c19.056-5.528,38.968-3.144,56.072,6.728
		c17.096,9.864,29.128,25.92,33.864,45.192l1.16,4.704l4.696,1.16c19.28,4.744,35.328,16.768,45.192,33.864
		c9.872,17.104,12.264,37.008,6.736,56.072l-1.352,4.656l3.496,3.352C472.112,209.816,480,228.256,480,248
		s-7.888,38.184-22.208,51.92l-3.496,3.352L455.648,307.928z"/>
</g>
<g>
</g>
<g>
</g>
<g>
</g>
<g>
</g>
<g>
</g>
<g>
</g>
<g>
</g>
<g>
</g>
<g>
</g>
<g>
</g>
<g>
</g>
<g>
</g>
<g>
</g>
<g>
</g>
<g>
</g>
</svg>
