<?xml version="1.0" encoding="iso-8859-1"?>
<!-- Generator: Adobe Illustrator 19.0.0, SVG Export Plug-In . SVG Version: 6.00 Build 0)  -->
<svg version="1.1" id="Capa_1" xmlns="http://www.w3.org/2000/svg" xmlns:xlink="http://www.w3.org/1999/xlink" x="0px" y="0px"
	 viewBox="0 0 495.992 495.992" style="enable-background:new 0 0 495.992 495.992;" xml:space="preserve">
<g>
	<path style="fill:#E56565;" d="M183.996,368c-22.056,0-40-17.944-40-40h16c0,13.232,10.768,24,24,24s24-10.768,24-24h16
		C223.996,350.056,206.052,368,183.996,368z"/>
	<path style="fill:#E56565;" d="M311.996,368c-22.056,0-40-17.944-40-40h16c0,13.232,10.768,24,24,24s24-10.768,24-24h16
		C351.996,350.056,334.052,368,311.996,368z"/>
</g>
<path style="fill:#FFCB57;" d="M303.996,160c0-31.248-25.584-56.512-56.952-55.992c-29.232,0.488-53.96,24.712-55.016,53.928
	c-0.512,14.28,4.328,27.392,12.672,37.528c11.808,14.344,19.296,31.728,19.296,50.304V264h48v-15.544
	c0-19.816,7.832-38.392,20.08-53.976C299.54,184.992,303.996,173.024,303.996,160z"/>
<g>
	<rect x="239.996" y="160" style="fill:#3F3A34;" width="16" height="16"/>
	<path style="fill:#3F3A34;" d="M375.996,296h-8v85.496c0,14.952-5.824,29.016-16.4,39.592l-51.88,51.88
		c-4.536,4.536-10.56,7.032-16.976,7.032h-69.488c-6.416,0-12.448-2.496-16.976-7.032l-51.88-51.88
		c-10.576-10.576-16.4-24.64-16.4-39.592V296h-8c-22.056,0-40,17.944-40,40c0,19.32,13.768,35.48,32,39.192v6.296
		c0,19.232,7.488,37.312,21.088,50.904l51.88,51.88c7.552,7.552,17.6,11.72,28.288,11.72h69.488c10.688,0,20.736-4.168,28.288-11.72
		l51.88-51.88c13.6-13.592,21.088-31.672,21.088-50.904v-6.296c18.232-3.72,32-19.872,32-39.192
		C415.996,313.944,398.052,296,375.996,296z M111.996,358.632c-9.312-3.304-16-12.2-16-22.632s6.688-19.328,16-22.632V358.632z
		 M383.996,358.632v-45.264c9.312,3.304,16,12.2,16,22.632S393.308,355.328,383.996,358.632z"/>
	<path style="fill:#3F3A34;" d="M187.996,184h0.744c2.408,5.928,5.656,11.528,9.792,16.552
		c11.424,13.88,17.464,29.512,17.464,45.216V272h64v-23.536c0-16.8,6.352-33.752,18.368-49.032c3.736-4.752,6.56-9.976,8.784-15.432
		h0.848c41.904,0,76-34.096,76-76s-34.096-76-76-76h-28V0h-16v28.448c-4.728-2.752-10.144-4.448-16-4.448s-11.272,1.696-16,4.448V0
		h-16v32h-28c-41.904,0-76,34.096-76,76S146.092,184,187.996,184z M263.996,256h-32v-8h32.024c0,0.152-0.024,0.304-0.024,0.464V256z
		 M285.788,189.536c-10.416,13.24-17.192,27.68-20.12,42.464h-9.672v-40h-16v40h-9.256c-2.608-14.64-9.32-28.824-19.856-41.624
		c-7.424-9.016-11.28-20.432-10.856-32.16c0.896-25.064,22.048-45.8,47.152-46.216c13.072-0.184,25.232,4.672,34.48,13.768
		c9.24,9.104,14.336,21.256,14.336,34.232C295.996,170.832,292.468,181.048,285.788,189.536z M292.868,114.368
		C280.804,102.496,264.908,96,248.004,96c-0.36,0-0.728,0-1.096,0.008C221.052,96.44,198.404,113.064,188.86,136h-0.864
		c-15.44,0-28-12.56-28-28s12.56-28,28-28h39.056c5.624,4.92,12.896,8,20.944,8s15.312-3.08,20.944-8h39.056c15.44,0,28,12.56,28,28
		s-12.56,28-28,28h-0.664C304.092,127.984,299.236,120.632,292.868,114.368z M367.996,108c0,31.952-25.12,58.072-56.64,59.832
		c0.312-2.592,0.64-5.176,0.64-7.832c0-2.76-0.232-5.48-0.576-8.176c22.656-1.752,40.576-20.72,40.576-43.824
		c0-24.264-19.744-44-44-44H278.86c0.672-2.576,1.136-5.224,1.136-8s-0.464-5.424-1.136-8h29.136
		C341.084,48,367.996,74.912,367.996,108z M247.996,40c8.824,0,16,7.176,16,16s-7.176,16-16,16s-16-7.176-16-16
		S239.172,40,247.996,40z M187.996,48h29.136c-0.672,2.576-1.136,5.224-1.136,8s0.464,5.424,1.136,8h-29.136
		c-24.256,0-44,19.736-44,44c0,23.096,17.904,42.056,40.552,43.824c-0.248,1.92-0.432,3.856-0.504,5.824
		c-0.128,3.424,0.072,6.816,0.488,10.176c-31.472-1.808-56.536-27.904-56.536-59.824C127.996,74.912,154.908,48,187.996,48z"/>
	<path style="fill:#3F3A34;" d="M247.996,304c22.712,0,136-1.536,136-32c0-15.64-29.408-25.808-87.392-30.216l-1.216,15.96
		c46.352,3.512,65.736,10.656,71.32,14.296c-9.072,6.144-49.144,15.96-118.712,15.96s-109.64-9.816-118.712-15.96
		c5.584-3.64,24.968-10.784,71.32-14.296l-1.216-15.96c-57.984,4.408-87.392,14.576-87.392,30.216
		C111.996,302.464,225.284,304,247.996,304z"/>
</g>
<g>
</g>
<g>
</g>
<g>
</g>
<g>
</g>
<g>
</g>
<g>
</g>
<g>
</g>
<g>
</g>
<g>
</g>
<g>
</g>
<g>
</g>
<g>
</g>
<g>
</g>
<g>
</g>
<g>
</g>
</svg>
