<?xml version="1.0" encoding="iso-8859-1"?>
<!-- Generator: Adobe Illustrator 19.0.0, SVG Export Plug-In . SVG Version: 6.00 Build 0)  -->
<svg version="1.1" id="Capa_1" xmlns="http://www.w3.org/2000/svg" xmlns:xlink="http://www.w3.org/1999/xlink" x="0px" y="0px"
	 viewBox="0 0 496 496" style="enable-background:new 0 0 496 496;" xml:space="preserve">
<rect x="152" y="8" style="fill:#FFCB57;" width="192" height="176"/>
<g>
	<path style="fill:#E56565;" d="M144,352h-32v16h32v16h-32v16h32v16h-32v16h32v16h-32v16h30.528c-3.312,9.288-12.112,16-22.528,16
		H96V352H80v128H56c-10.416,0-19.216-6.712-22.528-16H64v-16H32v-16h32v-16H32v-16h32v-16H32v-16h32v-16H32h-8h-8v104
		c0,22.056,17.944,40,40,40h64c22.056,0,40-17.944,40-40V352h-8H144z"/>
	<path style="fill:#E56565;" d="M472,352h-8h-32v16h32v16h-32v16h32v16h-32v16h32v16h-32v16h30.528
		c-3.312,9.288-12.112,16-22.528,16h-24V352h-16v128h-24c-10.416,0-19.216-6.712-22.528-16H384v-16h-32v-16h32v-16h-32v-16h32v-16
		h-32v-16h32v-16h-32h-8h-8v104c0,22.056,17.944,40,40,40h64c22.056,0,40-17.944,40-40V352H472z"/>
</g>
<g>
	<path style="fill:#3F3A34;" d="M472,288H368v-24c0-22.056-17.944-40-40-40h-24v-16h-16v16h-80v-16h-16v16h-24
		c-22.056,0-40,17.944-40,40v24H24c-13.232,0-24,10.768-24,24v24h176v-16h144v16h176v-24C496,298.768,485.232,288,472,288z M144,264
		c0-13.232,10.768-24,24-24h160c13.232,0,24,10.768,24,24v24h-8c-10.416,0-19.216,6.712-22.528,16H174.528
		c-3.312-9.288-12.112-16-22.528-16h-8V264z M160,320H16v-8c0-4.416,3.584-8,8-8h128c4.416,0,8,3.584,8,8V320z M480,320H336v-8
		c0-4.416,3.584-8,8-8h128c4.416,0,8,3.584,8,8V320z"/>
	<path style="fill:#3F3A34;" d="M320,32H176v128h144V32z M304,144H192V48h112V144z"/>
	<rect x="272" y="64" style="fill:#3F3A34;" width="16" height="64"/>
	<path style="fill:#3F3A34;" d="M224,112h16v16h16V64h-48v64h16V112z M240,80v16h-16V80H240z"/>
	<path style="fill:#3F3A34;" d="M471.648,219.48c0.128-1.152,0.352-2.288,0.352-3.48c0-8.048-3.08-15.32-8-20.944V120
		c0-39.704-32.296-72-72-72h-8V32h-32V0H144v32h-32v16h-8c-39.704,0-72,32.296-72,72v75.056c-4.92,5.624-8,12.896-8,20.944
		c0,1.192,0.224,2.328,0.352,3.48L0,235.72V272h16v-27.72l14.224-9.488C36.056,242.76,45.392,248,56,248s19.944-5.24,25.776-13.2
		L96,244.28V272h16v-36.28l-24.352-16.232C87.776,218.328,88,217.192,88,216c0-8.048-3.08-15.32-8-20.944V120
		c0-13.232,10.768-24,24-24h8v16h32v80h208v-80h32V96h8c13.232,0,24,10.768,24,24v75.056c-4.92,5.624-8,12.896-8,20.944
		c0,1.192,0.224,2.328,0.352,3.48L384,235.72V272h16v-27.72l14.224-9.488C420.056,242.76,429.392,248,440,248
		s19.944-5.24,25.776-13.2L480,244.28V272h16v-36.28L471.648,219.48z M56,232c-8.824,0-16-7.176-16-16s7.176-16,16-16
		s16,7.176,16,16S64.824,232,56,232z M104,80c-22.056,0-40,17.944-40,40v65.136c-2.576-0.672-5.224-1.136-8-1.136
		s-5.424,0.464-8,1.136V120c0-30.872,25.128-56,56-56h8v16H104z M128,96V48h16v48H128z M336,176H160V16h176V176z M368,96h-16V48h16
		V96z M392,80h-8V64h8c30.872,0,56,25.128,56,56v65.136c-2.576-0.672-5.224-1.136-8-1.136s-5.424,0.464-8,1.136V120
		C432,97.944,414.056,80,392,80z M440,232c-8.824,0-16-7.176-16-16s7.176-16,16-16s16,7.176,16,16S448.824,232,440,232z"/>
</g>
<g>
</g>
<g>
</g>
<g>
</g>
<g>
</g>
<g>
</g>
<g>
</g>
<g>
</g>
<g>
</g>
<g>
</g>
<g>
</g>
<g>
</g>
<g>
</g>
<g>
</g>
<g>
</g>
<g>
</g>
</svg>
