<?xml version="1.0" encoding="iso-8859-1"?>
<!-- Generator: Adobe Illustrator 19.0.0, SVG Export Plug-In . SVG Version: 6.00 Build 0)  -->
<svg version="1.1" id="Capa_1" xmlns="http://www.w3.org/2000/svg" xmlns:xlink="http://www.w3.org/1999/xlink" x="0px" y="0px"
	 viewBox="0 0 496 496" style="enable-background:new 0 0 496 496;" xml:space="preserve">
<rect x="168" y="104" style="fill:#FFCB57;" width="320" height="256"/>
<g>
	<path style="fill:#3F3A34;" d="M16,64h272v16h16V40c0-22.056-17.944-40-40-40H40C17.944,0,0,17.944,0,40v360h16V64z M40,16h224
		c13.232,0,24,10.768,24,24v8H16v-8C16,26.768,26.768,16,40,16z"/>
	<rect x="112" y="448" style="fill:#3F3A34;" width="80" height="16"/>
	<path style="fill:#3F3A34;" d="M0,456c0,22.056,17.944,40,40,40h224c22.056,0,40-17.944,40-40v-40H0V456z M16,432h272v24
		c0,13.232-10.768,24-24,24H40c-13.232,0-24-10.768-24-24V432z"/>
	<path style="fill:#3F3A34;" d="M496,96H160v272h128v32h16v-32h192V96z M480,352H176V112h304V352z"/>
	<rect x="304" y="168" style="fill:#3F3A34;" width="16" height="16"/>
	<rect x="336" y="168" style="fill:#3F3A34;" width="16" height="16"/>
	<path style="fill:#3F3A34;" d="M224,336h16v-32h16v32h16v-80h112v80h16v-32h16v32h16v-32h16v-64h-48h-8h-8v-40h16
		c8.824,0,16-7.176,16-16v-24c0-8.824-7.176-16-16-16h-16v-16H272v16h-16c-8.824,0-16,7.176-16,16v24c0,8.824,7.176,16,16,16h16v40
		h-8h-8h-48v64h16V336z M432,256v32h-32v-32H432z M400,160v24h-16v-24H400z M256,184v-24h16v24H256z M288,144h80v96h-80V144z
		 M224,256h32v32h-32V256z"/>
</g>
<g>
	<rect x="128" y="96" style="fill:#E56565;" width="16" height="272"/>
	<rect x="96" y="96" style="fill:#E56565;" width="16" height="272"/>
</g>
<g>
</g>
<g>
</g>
<g>
</g>
<g>
</g>
<g>
</g>
<g>
</g>
<g>
</g>
<g>
</g>
<g>
</g>
<g>
</g>
<g>
</g>
<g>
</g>
<g>
</g>
<g>
</g>
<g>
</g>
</svg>
