<?xml version="1.0" encoding="iso-8859-1"?>
<!-- Generator: Adobe Illustrator 19.0.0, SVG Export Plug-In . SVG Version: 6.00 Build 0)  -->
<svg version="1.1" id="Capa_1" xmlns="http://www.w3.org/2000/svg" xmlns:xlink="http://www.w3.org/1999/xlink" x="0px" y="0px"
	 viewBox="0 0 496 496" style="enable-background:new 0 0 496 496;" xml:space="preserve">
<path style="fill:#FFCB57;" d="M338.512,327.432l-33.944-33.944L285.92,304.68c-2.808-1.344-5.688-2.544-8.648-3.584L272,280h-48
	l-5.272,21.096c-2.96,1.048-5.84,2.248-8.648,3.584l-18.648-11.192l-33.944,33.944l11.192,18.648
	c-1.344,2.808-2.544,5.688-3.584,8.648L144,360v48l21.096,5.272c1.048,2.96,2.248,5.84,3.584,8.648l-11.192,18.648l33.944,33.944
	l18.648-11.192c2.808,1.344,5.688,2.544,8.648,3.584L224,488h48l5.272-21.096c2.96-1.048,5.84-2.248,8.648-3.584l18.648,11.192
	l33.944-33.944L327.32,421.92c1.344-2.808,2.544-5.688,3.584-8.648L352,408v-48l-21.096-5.272c-1.048-2.96-2.248-5.84-3.584-8.648
	L338.512,327.432z"/>
<g>
	<rect x="312" y="120" style="fill:#E56565;" width="16" height="40"/>
	<polygon style="fill:#E56565;" points="389.656,197.656 378.344,186.344 400,164.688 400,64 416,64 416,171.312 	"/>
	<polygon style="fill:#E56565;" points="453.656,245.656 442.344,234.344 464,212.688 464,128 480,128 480,219.312 	"/>
	<path style="fill:#E56565;" d="M320,104c-13.232,0-24-10.768-24-24s10.768-24,24-24s24,10.768,24,24S333.232,104,320,104z M320,72
		c-4.416,0-8,3.584-8,8s3.584,8,8,8s8-3.584,8-8S324.416,72,320,72z"/>
	<rect x="240" y="64" style="fill:#E56565;" width="16" height="88"/>
	<path style="fill:#E56565;" d="M248,48c-13.232,0-24-10.768-24-24s10.768-24,24-24s24,10.768,24,24S261.232,48,248,48z M248,16
		c-4.416,0-8,3.584-8,8s3.584,8,8,8c4.416,0,8-3.584,8-8S252.416,16,248,16z"/>
	<path style="fill:#E56565;" d="M408,48c-13.232,0-24-10.768-24-24s10.768-24,24-24s24,10.768,24,24S421.232,48,408,48z M408,16
		c-4.416,0-8,3.584-8,8s3.584,8,8,8s8-3.584,8-8S412.416,16,408,16z"/>
	<path style="fill:#E56565;" d="M472,112c-13.232,0-24-10.768-24-24s10.768-24,24-24s24,10.768,24,24S485.232,112,472,112z M472,80
		c-4.416,0-8,3.584-8,8s3.584,8,8,8s8-3.584,8-8S476.416,80,472,80z"/>
	<rect x="168" y="120" style="fill:#E56565;" width="16" height="48"/>
	<polygon style="fill:#E56565;" points="106.344,197.656 80,171.312 80,64 96,64 96,164.688 117.656,186.344 	"/>
	<polygon style="fill:#E56565;" points="58.344,261.656 16,219.312 16,128 32,128 32,212.688 69.656,250.344 	"/>
	<path style="fill:#E56565;" d="M176,104c-13.232,0-24-10.768-24-24s10.768-24,24-24s24,10.768,24,24S189.232,104,176,104z M176,72
		c-4.416,0-8,3.584-8,8s3.584,8,8,8s8-3.584,8-8S180.416,72,176,72z"/>
	<path style="fill:#E56565;" d="M88,48c-13.232,0-24-10.768-24-24S74.768,0,88,0s24,10.768,24,24S101.232,48,88,48z M88,16
		c-4.416,0-8,3.584-8,8s3.584,8,8,8s8-3.584,8-8S92.416,16,88,16z"/>
	<path style="fill:#E56565;" d="M24,112c-13.232,0-24-10.768-24-24s10.768-24,24-24s24,10.768,24,24S37.232,112,24,112z M24,80
		c-4.416,0-8,3.584-8,8s3.584,8,8,8s8-3.584,8-8S28.416,80,24,80z"/>
</g>
<g>
	<path style="fill:#3F3A34;" d="M216,384c0,17.648,14.352,32,32,32s32-14.352,32-32s-14.352-32-32-32S216,366.352,216,384z M264,384
		c0,8.824-7.176,16-16,16s-16-7.176-16-16s7.176-16,16-16S264,375.176,264,384z"/>
	<path style="fill:#3F3A34;" d="M334.536,342.632l-14.44,6.888c1.216,2.56,2.312,5.176,3.264,7.864l1.432,4.056l19.2,4.808v35.504
		l-19.2,4.808l-1.432,4.056c-0.952,2.688-2.04,5.296-3.256,7.848l-1.856,3.872l10.184,16.992L303.32,464.44l-16.976-10.184
		l-3.872,1.848c-2.56,1.216-5.176,2.312-7.864,3.264l-4.056,1.432l-4.8,19.2h-35.504l-4.808-19.2l-4.056-1.432
		c-2.688-0.952-5.304-2.048-7.864-3.264l-3.872-1.848l-16.976,10.184l-29.52-29.52l-11.312,11.312l38.352,38.352l20.424-12.248
		c0.456,0.192,0.912,0.384,1.368,0.568L217.752,496h60.496l5.776-23.104c0.456-0.184,0.912-0.376,1.368-0.568l20.424,12.248
		l42.768-42.768l-12.24-20.424c0.184-0.464,0.376-0.912,0.56-1.368L360,414.248v-60.496l-23.104-5.776
		C336.168,346.168,335.376,344.384,334.536,342.632z"/>
	<path style="fill:#3F3A34;" d="M136,353.752v60.496l23.104,5.776c0.736,1.808,1.52,3.592,2.368,5.344l14.424-6.904
		c-1.216-2.552-2.304-5.168-3.256-7.848l-1.44-4.064l-19.2-4.8v-35.504l19.2-4.808l1.432-4.056c0.952-2.688,2.048-5.304,3.264-7.864
		l1.848-3.872l-10.184-16.976l25.112-25.112l16.976,10.184l3.872-1.848c2.56-1.216,5.176-2.312,7.864-3.264l4.056-1.432l4.808-19.2
		h35.504l4.808,19.2l4.056,1.432c2.688,0.952,5.304,2.048,7.864,3.264l3.872,1.848l16.976-10.184l29.52,29.52l11.312-11.312
		l-38.352-38.352l-20.424,12.248c-0.456-0.192-0.912-0.384-1.368-0.568L278.248,272h-60.496l-5.776,23.104
		c-0.456,0.184-0.912,0.376-1.368,0.568l-20.424-12.248l-42.768,42.768l12.248,20.424c-0.192,0.456-0.384,0.912-0.568,1.368
		L136,353.752z"/>
	<path style="fill:#3F3A34;" d="M463.952,304.632C463.96,304.424,464,304.208,464,304c0-34.768-27.88-63.088-62.448-63.92
		c-6.416-11.096-17.128-19.368-29.856-22.576C362.392,192.912,338.584,176,312,176c-9.88,0-19.616,2.312-28.472,6.736
		C271.016,173.192,255.768,168,240,168c-18.44,0-36.088,7.136-49.4,19.688c-7.12-2.36-14.704-3.688-22.6-3.688
		c-35.552,0-65.728,26.08-71.096,60.976c-14.656,6.608-26,19.344-30.632,35.32C29.248,283.224,0,314.232,0,352
		c0,39.704,32.296,72,72,72h48v-16H72c-30.872,0-56-25.128-56-56s25.128-56,56-56c17.096,0,33.032,7.664,43.736,21.016l12.488-10
		c-11.416-14.256-27.496-23.36-45.192-26.072C89.024,266.12,103.376,256,120,256c14.224,0,27.504,7.664,34.648,19.992l13.84-8.016
		C158.496,250.72,139.912,240,120,240c-1.936,0-3.84,0.12-5.728,0.312C121.112,216.824,142.816,200,168,200
		c30.872,0,56,25.128,56,56h16c0-25.568-13.432-48.008-33.576-60.784C216.04,188.008,227.8,184,240,184
		c13.744,0,26.992,5.096,37.312,14.336l4.456,3.984l5.088-3.144C294.464,194.488,303.16,192,312,192
		c17.432,0,33.272,9.72,41.664,24.464C330.184,219.584,312,239.68,312,264h16c0-17.648,14.352-32,32-32s32,14.352,32,32
		s-14.352,32-32,32v16c26.472,0,48-21.528,48-48c0-2.512-0.256-4.96-0.624-7.376c21.016,3.264,37.544,20.168,40.208,41.376
		c-5-1.256-10.2-2-15.584-2c-22.648,0-43.16,11.592-54.848,31.016l13.704,8.248C399.624,320.696,415.008,312,432,312
		c26.472,0,48,21.528,48,48s-21.528,48-48,48h-56v16h56c35.288,0,64-28.712,64-64C496,336.352,483.08,315.712,463.952,304.632z"/>
	<rect x="424" y="360" style="fill:#3F3A34;" width="16" height="16"/>
	<path style="fill:#3F3A34;" d="M240,320v0.552c-31.52,3.96-56,30.872-56,63.448c0,35.288,28.712,64,64,64
		c32.576,0,59.488-24.48,63.448-56H312v-16h-0.552c-3.624-28.896-26.552-51.816-55.448-55.448V320H240z M296,384
		c0,26.472-21.528,48-48,48s-48-21.528-48-48s21.528-48,48-48S296,357.528,296,384z"/>
	<rect x="64" y="368" style="fill:#3F3A34;" width="16" height="16"/>
	<rect x="184" y="232" style="fill:#3F3A34;" width="16" height="16"/>
	<rect x="280" y="224" style="fill:#3F3A34;" width="16" height="16"/>
</g>
<g>
</g>
<g>
</g>
<g>
</g>
<g>
</g>
<g>
</g>
<g>
</g>
<g>
</g>
<g>
</g>
<g>
</g>
<g>
</g>
<g>
</g>
<g>
</g>
<g>
</g>
<g>
</g>
<g>
</g>
</svg>
